<svg xmlns="http://www.w3.org/2000/svg" xmlns:xlink="http://www.w3.org/1999/xlink" width="500" zoomAndPan="magnify" viewBox="0 0 375 374.999991" height="500" preserveAspectRatio="xMidYMid meet" version="1.0"><defs><g/><clipPath id="ac55cb6d49"><path d="M 26.367188 26.367188 L 348.867188 26.367188 L 348.867188 348.867188 L 26.367188 348.867188 Z M 26.367188 26.367188 " clip-rule="nonzero"/></clipPath><clipPath id="dd198bca33"><path d="M 317.355469 26.367188 L 57.878906 26.367188 C 57.878906 43.707031 43.855469 57.878906 26.367188 57.878906 L 26.367188 317.355469 C 43.707031 317.355469 57.878906 331.378906 57.878906 348.867188 L 317.355469 348.867188 C 317.355469 331.527344 331.378906 317.355469 348.867188 317.355469 L 348.867188 57.878906 C 331.527344 57.878906 317.355469 43.855469 317.355469 26.367188 " clip-rule="nonzero"/></clipPath></defs><g clip-path="url(#ac55cb6d49)"><g clip-path="url(#dd198bca33)"><path stroke-linecap="butt" transform="matrix(0.750545, 0, 0, 0.750545, 26.36719, 26.367186)" fill="none" stroke-linejoin="miter" d="M 387.702447 0.00000238686 L 41.985091 0.00000238686 C 41.985091 23.102994 23.300761 41.985097 -0.00000360878 41.985097 L -0.00000360878 387.702453 C 23.102988 387.702453 41.985091 406.386783 41.985091 429.687548 L 387.702447 429.687548 C 387.702447 406.584556 406.386777 387.702453 429.687542 387.702453 L 429.687542 41.985097 C 406.58455 41.985097 387.702447 23.300767 387.702447 0.00000238686 " stroke="#64ffda" stroke-width="48" stroke-opacity="1" stroke-miterlimit="4"/></g></g><path stroke-linecap="butt" transform="matrix(1.099001, 0, 0, 1.099001, 79.797875, 1.768794)" fill="none" stroke-linejoin="miter" d="M 194.060235 244.000625 L 194.060235 224.622235 L 177.578651 224.622235 L 111.296878 74.631644 L 59.015743 74.631644 L 59.015743 93.715023 L 78.628722 93.715023 L 18.609738 224.622235 L 2.657754 224.622235 L 2.657754 244.000625 L 62.44215 244.000625 L 62.44215 224.622235 L 41.883711 224.622235 C 46.433296 213.991133 51.277894 203.59462 55.177031 194.612743 L 142.017243 194.612743 C 146.150968 203.829208 150.284693 214.225721 155.12929 224.622235 L 134.041251 224.622235 L 134.041251 244.000625 Z M 133.56852 175.767507 L 63.387611 175.767507 C 73.549536 152.553958 84.713792 128.33097 99.421749 95.190083 C 113.482812 127.623651 123.406595 152.081228 133.56852 175.767507 Z M 133.56852 175.767507 " stroke="#000000" stroke-width="14.821092" stroke-opacity="1" stroke-miterlimit="4"/><g fill="#64ffda" fill-opacity="1"><g transform="translate(79.797875, 269.925094)"><g><path d="M 213.273438 0 L 213.273438 -21.273438 L 195.1875 -21.273438 L 122.324219 -186.148438 L 64.886719 -186.148438 L 64.886719 -165.140625 L 86.425781 -165.140625 L 20.476562 -21.273438 L 2.925781 -21.273438 L 2.925781 0 L 68.609375 0 L 68.609375 -21.273438 L 46.003906 -21.273438 C 51.058594 -32.976562 56.375 -44.410156 60.632812 -54.25 L 156.097656 -54.25 C 160.617188 -44.144531 165.140625 -32.707031 170.457031 -21.273438 L 147.324219 -21.273438 L 147.324219 0 Z M 146.789062 -74.992188 L 69.671875 -74.992188 C 80.839844 -100.519531 93.074219 -127.113281 109.296875 -163.542969 C 124.71875 -127.910156 135.621094 -101.050781 146.789062 -74.992188 Z M 146.789062 -74.992188 "/></g></g></g></svg>