<svg xmlns="http://www.w3.org/2000/svg" xmlns:xlink="http://www.w3.org/1999/xlink" width="500" zoomAndPan="magnify" viewBox="0 0 375 374.999991" height="500" preserveAspectRatio="xMidYMid meet" version="1.0"><defs><g/><clipPath id="c8e02f0dfb"><path d="M 0 26.367188 L 375 26.367188 L 375 348.867188 L 0 348.867188 Z M 0 26.367188 " clip-rule="nonzero"/></clipPath><clipPath id="04e221a2ee"><path d="M 375 187.617188 L 281.25 348.867188 L 93.75 348.867188 L 0 187.617188 L 93.75 26.367188 L 281.25 26.367188 L 375 187.617188 " clip-rule="nonzero"/></clipPath></defs><g clip-path="url(#c8e02f0dfb)"><g clip-path="url(#04e221a2ee)"><path stroke-linecap="butt" transform="matrix(0.75, 0, 0, 0.750545, 0.0000045, 26.367186)" fill="none" stroke-linejoin="miter" d="M 499.999995 214.843761 L 374.999995 429.687521 L 124.999994 429.687521 L -0.000006 214.843761 L 124.999994 0.00000238686 L 374.999995 0.00000238686 L 499.999995 214.843761 " stroke="#64ffda" stroke-width="18" stroke-opacity="1" stroke-miterlimit="4"/></g></g><path stroke-linecap="butt" transform="matrix(0.75, 0, 0, 0.75, 54.474611, 61.596296)" fill="none" stroke-linejoin="miter" d="M 194.059907 244.00183 L 194.059907 224.62162 L 177.580739 224.62162 L 111.294277 74.632027 L 59.018232 74.632027 L 59.018232 93.715362 L 78.627608 93.715362 L 18.606771 224.62162 L 2.658853 224.62162 L 2.658853 244.00183 L 62.440107 244.00183 L 62.440107 224.62162 L 41.882814 224.62162 C 46.434897 213.991411 51.278648 203.590369 55.174481 194.611202 L 142.013029 194.611202 C 146.148446 203.829952 150.283863 214.225786 155.127613 224.62162 L 134.03907 224.62162 L 134.03907 244.00183 Z M 133.57032 175.76745 L 63.388023 175.76745 C 73.549482 152.553907 84.710942 128.329947 99.424484 95.18932 C 113.481777 127.621614 123.408861 152.079949 133.57032 175.76745 Z M 274.148454 72.210152 C 244.851577 72.210152 210.0547 84.085153 210.528658 119.116405 C 210.528658 153.970574 241.007827 161.236199 273.440121 166.314325 C 291.106788 168.975783 323.773457 172.637242 323.539082 195.855993 C 323.539082 221.017453 295.419289 226.80912 274.622412 226.80912 C 259.617203 226.80912 242.429702 221.96537 230.611993 213.517453 L 229.606784 189.767451 L 210.528658 189.767451 L 210.528658 223.444537 C 229.372409 240.397663 249.929702 246.423705 274.388037 246.423705 C 306.820331 246.423705 344.33075 235.314329 344.565125 195.855993 C 344.565125 158.814324 310.184915 152.314324 275.861996 147.001823 C 251.408869 142.866406 231.320326 138.491406 231.320326 119.647655 C 231.320326 99.324737 253.356786 90.819528 274.622412 90.819528 C 287.679705 90.819528 303.450539 93.715362 314.79429 100.741404 L 315.799498 125.199739 L 334.408875 125.199739 C 334.408875 112.855988 334.64325 103.876821 334.64325 91.585153 C 316.507832 76.579944 296.658872 72.210152 274.148454 72.210152 Z M 274.148454 72.210152 " stroke="#000000" stroke-width="7.25931" stroke-opacity="1" stroke-miterlimit="4"/><g fill="#64ffda" fill-opacity="1"><g transform="translate(54.474611, 244.596284)"><g><path d="M 145.546875 0 L 145.546875 -14.519531 L 133.203125 -14.519531 L 83.480469 -127.035156 L 44.28125 -127.035156 L 44.28125 -112.699219 L 58.980469 -112.699219 L 13.972656 -14.519531 L 1.996094 -14.519531 L 1.996094 0 L 46.820312 0 L 46.820312 -14.519531 L 31.394531 -14.519531 C 34.84375 -22.503906 38.472656 -30.308594 41.375 -37.019531 L 106.527344 -37.019531 C 109.613281 -30.125 112.699219 -22.320312 116.328125 -14.519531 L 100.539062 -14.519531 L 100.539062 0 Z M 100.175781 -51.175781 L 47.546875 -51.175781 C 55.167969 -68.597656 63.515625 -86.746094 74.585938 -111.609375 C 85.113281 -87.289062 92.554688 -68.960938 100.175781 -51.175781 Z M 100.175781 -51.175781 "/></g></g></g><g fill="#64ffda" fill-opacity="1"><g transform="translate(201.470551, 244.596284)"><g><path d="M 58.617188 -128.847656 C 36.660156 -128.847656 10.527344 -119.957031 10.886719 -93.640625 C 10.886719 -67.507812 33.753906 -62.066406 58.074219 -58.253906 C 71.320312 -56.257812 95.820312 -53.535156 95.636719 -36.113281 C 95.636719 -17.242188 74.585938 -12.886719 58.980469 -12.886719 C 47.730469 -12.886719 34.84375 -16.515625 25.953125 -22.867188 L 25.226562 -40.652344 L 10.886719 -40.652344 L 10.886719 -15.425781 C 25.042969 -2.722656 40.46875 1.816406 58.796875 1.816406 C 83.117188 1.816406 111.246094 -6.53125 111.425781 -36.113281 C 111.425781 -63.878906 85.65625 -68.78125 59.886719 -72.773438 C 41.558594 -75.859375 26.496094 -79.125 26.496094 -93.28125 C 26.496094 -108.523438 43.011719 -114.875 58.980469 -114.875 C 68.78125 -114.875 80.574219 -112.699219 89.105469 -107.433594 L 89.832031 -89.105469 L 103.804688 -89.105469 C 103.804688 -98.359375 103.988281 -105.074219 103.988281 -114.332031 C 90.375 -125.582031 75.496094 -128.847656 58.617188 -128.847656 Z M 58.617188 -128.847656 "/></g></g></g></svg>