<svg xmlns="http://www.w3.org/2000/svg" xmlns:xlink="http://www.w3.org/1999/xlink" width="500" zoomAndPan="magnify" viewBox="0 0 375 374.999991" height="500" preserveAspectRatio="xMidYMid meet" version="1.0"><defs><g/><clipPath id="e242553a3a"><path d="M 338.359375 0 L 36.640625 0 C 36.640625 20.160156 20.335938 36.640625 0 36.640625 L 0 338.359375 C 20.160156 338.359375 36.640625 354.664062 36.640625 375 L 338.359375 375 C 338.359375 354.839844 354.664062 338.359375 375 338.359375 L 375 36.640625 C 354.839844 36.640625 338.359375 20.335938 338.359375 0 " clip-rule="nonzero"/></clipPath></defs><rect x="-37.5" width="450" fill="#ffffff" y="-37.499999" height="449.999989" fill-opacity="1"/><rect x="-37.5" width="450" fill="#ffffff" y="-37.499999" height="449.999989" fill-opacity="1"/><rect x="-37.5" width="450" fill="#020c1b" y="-37.499999" height="449.999989" fill-opacity="1"/><g clip-path="url(#e242553a3a)"><path stroke-linecap="butt" transform="matrix(0.75, 0, 0, 0.75, 0.0000045, 0)" fill="none" stroke-linejoin="miter" d="M 451.145828 0 L 48.854161 0 C 48.854161 26.880208 27.114577 48.854167 -0.000006 48.854167 L -0.000006 451.145834 C 26.880202 451.145834 48.854161 472.885417 48.854161 500.000001 L 451.145828 500.000001 C 451.145828 473.119792 472.885411 451.145834 499.999995 451.145834 L 499.999995 48.854167 C 473.119786 48.854167 451.145828 27.114583 451.145828 0 " stroke="#64ffda" stroke-width="48" stroke-opacity="1" stroke-miterlimit="4"/></g><g fill="#64ffda" fill-opacity="1"><g transform="translate(38.457775, 301.929399)"><g><path d="M 296.082031 0 L 296.082031 -29.535156 L 270.976562 -29.535156 L 169.824219 -258.425781 L 90.078125 -258.425781 L 90.078125 -229.261719 L 119.984375 -229.261719 L 28.425781 -29.535156 L 4.0625 -29.535156 L 4.0625 0 L 95.25 0 L 95.25 -29.535156 L 63.867188 -29.535156 C 70.882812 -45.777344 78.265625 -61.652344 84.171875 -75.3125 L 216.707031 -75.3125 C 222.984375 -61.285156 229.261719 -45.410156 236.644531 -29.535156 L 204.527344 -29.535156 L 204.527344 0 Z M 203.789062 -104.109375 L 96.726562 -104.109375 C 112.230469 -139.550781 129.214844 -176.46875 151.734375 -227.046875 C 173.144531 -177.574219 188.28125 -140.289062 203.789062 -104.109375 Z M 203.789062 -104.109375 "/></g></g></g></svg>